# xmcd
#
# Track frame offsets: 
#        150
#        1330
#        17996
#        30921
#        40976
#        52536
#        65566
#        74307
#        90722
#        101599
#        110637
#        118616
#        132252
#        142978
#
# Disc length: 1921 seconds
#
# Revision: 0
# Processed by: cddbd v1.5.2PL0 Copyright (c) Steve Scherf et al.
# Submitted via: ExactAudioCopy v0.99pb5
#
DISCID=b4077f0e
DTITLE=Віктор Пашник - Кобзар Шкрум
DYEAR=1900
DGENRE=Folklore
TTITLE0=дзвіночок
TTITLE1=Україно моя
TTITLE2=Вітер віє
TTITLE3=Ой у вишневому садочку
TTITLE4=Ішло дівча лучками
TTITLE5=Коломия
TTITLE6=Ой під вишнею
TTITLE7=Ніч яка місячна
TTITLE8=Котику сіренький
TTITLE9=Пироги
TTITLE10=Била мене мати
TTITLE11=Ох і не стелися
TTITLE12=До праці
TTITLE13=дзвіночок
EXTD=
EXTT0=
EXTT1=
EXTT2=
EXTT3=
EXTT4=
EXTT5=
EXTT6=
EXTT7=
EXTT8=
EXTT9=
EXTT10=
EXTT11=
EXTT12=
EXTT13=
PLAYORDER=
